<svg width="268" height="53" viewBox="0 0 268 53" fill="none" xmlns="http://www.w3.org/2000/svg">
<path d="M13.4903 36.0001C12.9344 31.7515 11.8124 28.7529 9.52812 26.472C7.24717 24.1876 4.24857 23.0623 0 22.5098V36.0001H13.4903Z" fill="white"/>
<path d="M26.5628 10.0602L25.9395 9.44029C25.1848 8.68559 24.0999 8.36551 23.0555 8.58788L0 13.5002V20.2487L21.8325 11.5157C21.9437 11.4719 22.0616 11.4517 22.1795 11.445C22.4962 11.4146 22.8163 11.5258 23.0488 11.7583L24.2853 12.9948C24.5919 13.3014 24.6862 13.763 24.5245 14.1673L15.7915 35.9998H22.54L27.4152 12.9476C27.641 11.8998 27.3175 10.8149 26.5628 10.0602Z" fill="white"/>
<path d="M28.9078 7.0317C25.6936 3.81747 20.4545 4.87541 9.09349 5.84574L0 6.74195V13.4972L23.0555 8.5849C24.0999 8.36254 25.1848 8.68261 25.9395 9.43731L26.5628 10.0572C27.3175 10.812 27.641 11.8968 27.4186 12.9413L22.5434 35.9934H29.2481L30.0904 26.8393C31.0641 15.485 32.1187 10.2459 28.9078 7.0317Z" fill="white"/>
<path d="M31.4987 4.50126C27.0413 0.0438001 19.8547 0 5.95339 0C5.51202 0 5.06055 0 4.60571 0H4.56191H0.0437996H0V6.74179L9.09349 5.84558C20.4511 4.87525 25.6936 3.81731 28.9078 7.03154C32.122 10.2458 31.0641 15.4849 30.0938 26.8459L29.2515 36H36V31.4415C35.9966 16.6203 36.1011 9.1036 31.4987 4.50126Z" fill="white"/>
<path d="M59.6075 13.4974V20.6422L73.665 17.6843C74.5973 17.4881 75.4739 18.1994 75.4739 19.1521V22.3878H68.2838C61.3117 22.3878 58.3049 25.0594 58.3049 29.6141C58.3049 34.3002 61.7039 36.4024 66.4101 36.4024C70.2012 36.4024 72.685 35.3951 74.428 33.1177H75.4739V36.0015H82.446V21.2054C82.446 16.0813 80.5183 13.4974 72.6311 13.4974H59.6075ZM69.2425 26.417H75.4739V27.0739C75.4739 30.271 72.2492 31.3221 69.3297 31.3221C66.4101 31.3221 65.1899 30.4024 65.1899 28.9133C65.1899 27.2491 66.3229 26.417 69.2425 26.417Z" fill="white"/>
<path d="M97.1206 18.9692H105.686V30.5271H95.5018L97.1206 18.9692ZM91.4549 13.4947L89.0605 30.5271H85.6846V36.0015H116.188V30.5271H112.658V13.4947H91.4549Z" fill="white"/>
<path d="M119.665 13.5048V35.9998H126.245V20.5121H127.378L132.476 31.7237H139.71L144.677 20.5121H145.81V35.9998H152.782V13.5048H142.281L137.226 25.1982H135.962L130.777 13.5048H119.665Z" fill="white"/>
<path d="M157.723 13.4977V35.9998H166.83L175.284 21.5998H176.417V35.9998H183.345V13.4977H174.238L165.784 27.8977H164.695V13.4977H157.723Z" fill="white"/>
<path d="M188.32 13.4998V40.5001H195.292V33.1393H196.207C197.776 35.1977 200.129 36.424 203.571 36.424H204.356C210.02 36.424 214.16 33.2269 214.16 26.0445V23.4606C214.16 16.2781 210.02 13.0811 204.356 13.0811H203.571C200.216 13.0811 197.819 14.2635 196.207 16.2781H195.292V13.4998H188.32ZM200.826 18.5555H201.61C204.966 18.5555 207.188 20.1759 207.188 23.373V26.0883C207.188 29.3291 204.966 30.9496 201.61 30.9496H200.826C197.514 30.9496 195.292 29.3729 195.292 26.0883V23.373C195.292 20.1321 197.514 18.5555 200.826 18.5555Z" fill="white"/>
<path d="M248.502 13.4998L243.929 36.0034H250.669L254.087 18.9742H260.799V36.0034H267.772V13.4998H248.502Z" fill="white"/>
<path d="M217.65 13.4997V20.6343L231.708 17.6764C232.64 17.4802 233.516 18.1915 233.516 19.1442V22.3902H226.326C219.354 22.3902 216.348 25.0617 216.348 29.6164C216.348 34.3025 219.746 36.4047 224.453 36.4047C228.244 36.4047 230.728 35.3974 232.471 33.12H233.516V36.0034H240.489V21.2077C240.489 16.0836 238.561 13.4997 230.674 13.4997H217.65ZM227.285 26.4194H233.516V27.0763C233.516 30.2733 230.292 31.3244 227.372 31.3244C224.453 31.3244 223.232 30.4047 223.232 28.9157C223.232 27.2515 224.365 26.4194 227.285 26.4194Z" fill="white"/>
<path opacity="0.5" d="M61.735 50.09C62.581 50.09 63.229 49.883 63.229 49.883V49.019C63.229 49.019 62.581 49.298 61.735 49.298C60.295 49.298 59.377 48.362 59.377 46.85C59.377 45.338 60.295 44.402 61.735 44.402C62.581 44.402 63.229 44.726 63.229 44.726V43.862C63.229 43.862 62.581 43.61 61.735 43.61C59.728 43.61 58.441 44.924 58.441 46.85C58.441 48.821 59.683 50.09 61.735 50.09ZM65.7479 51.404H66.6299V50H71.1569V51.404H72.0389V49.208H71.3279V43.7H67.1069V45.311C67.1069 47.03 67.0169 48.173 66.3509 49.208H65.7479V51.404ZM67.9439 44.834V44.492H70.4459V49.208H67.2419C67.9259 48.227 67.9439 46.184 67.9439 44.834ZM75.172 50H78.709V49.208H76.054V47.129H78.529V46.337H76.054V44.492H78.709V43.7H75.172V50ZM81.8684 50.09C83.0474 50.09 83.4164 49.1 83.4164 44.78V44.492H85.9364V50H86.8184V43.7H82.5524V44.78C82.5524 48.56 82.3004 49.28 81.7064 49.28C81.5534 49.28 81.4184 49.235 81.4184 49.235V50.018C81.4184 50.018 81.5894 50.09 81.8684 50.09ZM89.7679 50H90.7219L91.3249 48.38H94.1149L94.7179 50H95.7079L93.2149 43.7H92.2609L89.7679 50ZM92.7199 44.645H92.7379L93.8539 47.66H91.5949L92.7199 44.645ZM98.6638 50H99.5458V47.129H102.588V50H103.47V43.7H102.588V46.337H99.5458V43.7H98.6638V50ZM109.659 50.09C111.486 50.09 112.593 48.749 112.593 46.85C112.593 44.987 111.504 43.61 109.659 43.61C107.832 43.61 106.725 44.96 106.725 46.85C106.725 48.722 107.814 50.09 109.659 50.09ZM109.659 49.298C108.372 49.298 107.661 48.209 107.661 46.85C107.661 45.509 108.372 44.402 109.659 44.402C110.928 44.402 111.657 45.482 111.657 46.85C111.657 48.182 110.955 49.298 109.659 49.298ZM119.906 50H121.949C123.569 50 124.199 49.37 124.199 48.281C124.199 47.507 123.821 46.958 122.858 46.751V46.733C123.668 46.517 124.019 46.004 124.019 45.32C124.019 44.33 123.389 43.7 121.769 43.7H119.906V50ZM120.788 49.262V47.129H121.949C122.849 47.129 123.245 47.525 123.245 48.191C123.245 48.866 122.849 49.262 121.949 49.262H120.788ZM120.788 46.391V44.438H121.769C122.732 44.438 123.11 44.816 123.11 45.41C123.11 46.013 122.732 46.391 121.769 46.391H120.788ZM131.433 50H132.549L135.231 45.374L135.537 44.843H135.555L135.537 45.473V50H136.419V43.7H135.303L132.657 48.254L132.315 48.839H132.297L132.315 48.299V43.7H131.433V50ZM140.075 50H140.957V47.129H143.999V50H144.881V43.7H143.999V46.337H140.957V43.7H140.075V50ZM148.533 50H149.415V47.129H152.457V50H153.339V43.7H152.457V46.337H149.415V43.7H148.533V50ZM159.528 50.09C161.355 50.09 162.462 48.749 162.462 46.85C162.462 44.987 161.373 43.61 159.528 43.61C157.701 43.61 156.594 44.96 156.594 46.85C156.594 48.722 157.683 50.09 159.528 50.09ZM159.528 49.298C158.241 49.298 157.53 48.209 157.53 46.85C157.53 45.509 158.241 44.402 159.528 44.402C160.797 44.402 161.526 45.482 161.526 46.85C161.526 48.182 160.824 49.298 159.528 49.298ZM166.874 50H167.756V44.492H169.682V43.7H164.948V44.492H166.874V50ZM172.648 50H176.185V49.208H173.53V47.129H176.005V46.337H173.53V44.492H176.185V43.7H172.648V50ZM183.548 50H184.682L182.36 46.706L184.475 43.7H183.449L181.793 46.121L180.119 43.7H179.039L181.145 46.724L178.832 50H179.912L181.703 47.336L183.548 50Z" fill="white"/>
</svg>
